HIERARCHY
ROOT hip
{
	OFFSET 0.000000 0.000000 0.000000 
	CHANNELS 6 Xposition Yposition Zposition Xrotation Zrotation Yrotation
	JOINT abdomen
	{
		OFFSET 0.000000 3.402643 0.000000 
		CHANNELS 3 Xrotation Zrotation Yrotation
		JOINT chest
		{
			OFFSET 0.000000 8.438565 -0.680529 
			CHANNELS 3 Xrotation Zrotation Yrotation
			JOINT neck
			{
				OFFSET 0.000000 10.207942 -0.272212 
				CHANNELS 3 Xrotation Zrotation Yrotation
				JOINT head
				{
					OFFSET 0.000000 3.130431 0.000000 
					CHANNELS 3 Xrotation Zrotation Yrotation
					End Site
					{
						OFFSET 0.000000 3.130435 0.000000 
					}
				}
			}
			JOINT lCollar
			{
				OFFSET 3.470700 6.669187 -0.816635 
				CHANNELS 3 Yrotation Zrotation Xrotation
				JOINT lShldr
				{
					OFFSET 3.198488 0.000000 0.000000 
					CHANNELS 3 Zrotation Yrotation Xrotation
					JOINT lForeArm
					{
						OFFSET 10.139888 0.000000 0.000000 
						CHANNELS 3 Yrotation Zrotation Xrotation
						JOINT lHand
						{
							OFFSET 8.370511 0.000000 0.000000 
							CHANNELS 3 Zrotation Yrotation Xrotation
							End Site
							{
								OFFSET 4.083176 0.000000 0.000000 
							}
						}
					}
				}
			}
			JOINT rCollar
			{
				OFFSET -3.470700 6.669187 -0.816635 
				CHANNELS 3 Yrotation Zrotation Xrotation
				JOINT rShldr
				{
					OFFSET -3.198488 0.000000 0.000000 
					CHANNELS 3 Zrotation Yrotation Xrotation
					JOINT rForeArm
					{
						OFFSET -10.139888 0.000000 0.000000 
						CHANNELS 3 Yrotation Zrotation Xrotation
						JOINT rHand
						{
							OFFSET -8.370511 0.000000 0.000000 
							CHANNELS 3 Zrotation Yrotation Xrotation
							End Site
							{
								OFFSET -4.083176 0.000000 0.000000 
							}
						}
					}
				}
			}
		}
	}
	JOINT lThigh
	{
		OFFSET 5.308129 -1.633274 1.361059 
		CHANNELS 3 Xrotation Zrotation Yrotation
		JOINT lShin
		{
			OFFSET -2.041588 -20.007561 0.000000 
			CHANNELS 3 Xrotation Zrotation Yrotation
			JOINT lFoot
			{
				OFFSET 0.000000 -19.190928 -1.224953 
				CHANNELS 3 Xrotation Yrotation Zrotation
				End Site
				{
					OFFSET 0.000000 -2.449906 4.627600 
				}
			}
		}
	}
	JOINT rThigh
	{
		OFFSET -5.308129 -1.633274 1.361059 
		CHANNELS 3 Xrotation Zrotation Yrotation
		JOINT rShin
		{
			OFFSET 2.041588 -20.007561 0.000000 
			CHANNELS 3 Xrotation Zrotation Yrotation
			JOINT rFoot
			{
				OFFSET 0.000000 -19.190928 -1.224953 
				CHANNELS 3 Xrotation Yrotation Zrotation
				End Site
				{
					OFFSET 0.000000 -2.449906 4.627600 
				}
			}
		}
	}
}
MOTION
Frames: 11
Frame Time: 0.033333
-13.717620 40.796253 -2.536497 -14.917400 -4.670760 -3.004340 0.000000 0.000000 0.000000 22.635500 -16.633900 -9.381620 25.256701 8.589770 7.206690 -6.756830 4.727080 16.207701 -17.340122 19.007990 21.615250 9.884380 -64.937897 -45.916901 -32.692299 -4.508210 21.511900 -14.181500 -27.050501 -1.525640 -0.550165 6.269245 21.592922 -7.055780 58.399899 -30.024700 43.751701 -24.548700 36.875599 22.211000 25.940100 -38.560699 -9.589780 26.167660 17.421070 38.832825 5.019777 -8.993407 -9.870396 0.266006 -12.594633 -11.892410 -6.080652 -28.409922 47.260731 -3.456023 9.423638 -19.820314 -6.459641 3.371512 
-12.304630 40.395611 -2.468948 -18.403099 -4.284210 -9.489600 0.000000 0.000000 0.000000 22.635500 -12.638400 -6.634300 28.903999 0.320464 6.398020 -7.886580 2.561300 15.081100 -16.300821 13.763219 22.104380 11.101700 -60.196800 -49.247601 -26.763300 -2.179630 19.780800 -14.001400 -27.386400 -1.463270 4.490886 -3.514594 25.000000 -28.316401 63.824299 -47.207199 28.611601 -24.646700 30.181999 21.848000 22.741100 -38.322399 -4.297612 23.210222 20.541054 42.962830 4.955580 -8.032141 -13.627438 3.038459 -11.619722 -11.962504 -9.911091 -27.442190 51.371029 -5.398963 8.324428 -20.298321 -6.461073 3.952492 
-11.103814 40.082600 -2.154120 -21.792101 -2.737490 -12.615400 0.000000 0.000000 0.000000 22.635500 -8.260020 -4.505940 33.310902 -6.037020 4.171680 -9.079300 0.747581 12.584500 -15.917884 9.087420 22.870531 10.619400 -57.538898 -50.654598 -21.740200 -0.833581 17.409599 -13.575200 -26.829901 -1.723490 8.802669 -12.164094 25.000000 -47.276299 64.679802 -63.314400 16.774099 -21.515200 24.954000 22.227100 19.768801 -39.272099 -0.247152 18.996843 22.716026 45.246979 4.671462 -8.213654 -16.647402 4.764401 -10.249359 -11.815120 -14.631672 -26.835217 55.122589 -6.534081 3.711310 -20.722681 -6.664425 4.741107 
-10.227103 39.881706 -1.703599 -24.678600 0.130462 -12.800700 0.000000 0.000000 0.000000 22.635500 -4.442020 -2.882540 37.992298 -9.874500 1.162390 -9.495110 -0.025168 9.173000 -15.589017 5.419334 23.716122 8.742900 -57.048199 -50.227901 -18.496700 -0.601664 15.050400 -12.408200 -25.385201 -2.403270 12.262842 -18.053963 25.000000 -58.056198 64.588203 -72.885902 9.801250 -18.230000 22.899799 23.381001 17.469999 -40.770000 2.437591 14.407396 23.472605 46.059322 4.036493 -9.085263 -18.524714 5.411565 -8.846732 -11.318111 -19.905283 -26.598131 58.142517 -7.128623 -1.935902 -20.890913 -7.084456 5.749533 
-9.698271 39.777981 -1.217635 -26.742901 4.052780 -10.754800 0.000000 0.000000 0.000000 22.635500 -1.488070 -1.754500 42.110199 -11.842300 -2.063600 -8.812970 0.689871 5.515580 -14.613028 2.428678 24.109407 5.158890 -57.955700 -47.257301 -17.466499 -0.905809 13.520200 -10.749800 -23.699800 -3.221690 14.592783 -20.689732 25.000000 -62.259300 65.609802 -76.849098 7.418660 -16.827101 23.114401 24.672300 16.033800 -42.012100 4.048378 10.209645 23.373613 45.840900 3.410055 -10.854970 -19.244730 5.298290 -7.881637 -10.322759 -24.964996 -26.372744 60.341156 -7.544441 -6.598026 -20.752123 -7.863913 6.498461 
-9.477605 39.724319 -0.772160 -27.746201 8.314570 -7.389580 0.000000 0.000000 0.000000 22.635500 0.815064 -0.973040 45.197701 -12.995300 -5.150700 -7.479770 2.539030 2.124660 -12.637033 -0.400221 23.748161 -0.221019 -58.717201 -41.446201 -18.735600 -1.125020 13.406700 -9.919160 -22.827900 -3.632830 15.823656 -20.921021 25.000000 -61.974998 67.870003 -76.753502 8.758230 -17.163500 24.513599 25.519800 15.710500 -42.515400 4.763125 6.892993 23.175991 45.143196 3.232398 -13.523115 -19.131546 4.822687 -7.614268 -8.927031 -28.774075 -25.781809 61.749352 -8.033423 -9.384232 -20.526947 -8.945448 6.466279 
-9.488660 39.713737 -0.423228 -27.683100 12.128200 -3.754920 0.000000 0.000000 0.000000 22.635500 2.876830 -0.267140 47.169601 -14.252300 -7.949810 -6.180660 4.643620 -0.766826 -9.636839 -3.456508 22.734255 -6.380770 -57.728699 -34.259800 -22.439100 -1.212740 14.529500 -10.877400 -23.347099 -3.340510 16.495073 -20.345087 25.000000 -58.567501 70.902199 -73.917503 12.633400 -18.269199 26.592699 25.727200 16.426399 -42.294998 4.699307 4.613541 23.276257 44.380974 3.499051 -16.540735 -18.703550 4.352684 -7.549166 -7.579093 -30.718639 -24.302542 62.416897 -8.746302 -10.085660 -20.506258 -10.335093 5.841816 
-9.639215 39.690319 -0.215659 -26.916100 14.891700 -0.969607 0.000000 0.000000 0.000000 22.635500 5.070880 0.657216 48.028301 -16.047400 -10.287900 -5.183910 6.098780 -3.188900 -5.712463 -6.656532 21.309393 -11.497800 -54.273399 -28.223400 -28.711100 -1.787230 16.104200 -13.308800 -24.936100 -2.448730 17.313850 -20.179218 25.000000 -53.135101 74.247200 -69.435204 18.167400 -19.516300 29.246901 25.508200 17.654499 -41.682098 4.139571 3.114761 23.512962 43.642452 3.798985 -18.784237 -18.307230 3.938575 -7.125051 -6.534978 -31.056805 -22.102131 62.290562 -9.664110 -8.985088 -21.384960 -12.063944 6.604445 
-9.847310 39.709167 -0.185558 -25.931801 16.375999 0.395400 0.000000 0.000000 0.000000 22.635500 7.479520 1.764340 47.726898 -18.365801 -11.919600 -4.434670 6.629850 -5.258380 -1.000304 -9.588409 19.609455 -14.885100 -48.575298 -24.361401 -37.438599 -3.489180 16.974800 -15.928100 -26.646099 -1.409270 18.563982 -20.799299 25.000000 -45.838299 77.627701 -63.280899 25.144199 -20.784300 32.639099 25.212500 19.023899 -41.024700 3.393013 2.310655 23.441380 42.894218 3.712841 -19.095543 -17.611864 3.409850 -7.454846 -6.251109 -30.620743 -19.972073 61.558823 -10.484060 -6.877322 -22.440987 -13.405511 7.305912 
-10.066978 39.821651 -0.351784 -25.021700 16.522600 0.450255 0.000000 0.000000 0.000000 22.635500 9.744010 2.841400 46.256302 -20.686800 -12.503800 -4.022170 6.593070 -6.860660 4.226526 -11.561122 17.655569 -17.596300 -41.358398 -21.685801 -48.217098 -6.351000 16.235001 -17.390900 -27.706800 -0.804941 20.029043 -21.852472 25.000000 -33.984100 80.868301 -52.604599 33.674900 -21.828501 37.028099 25.122299 20.522100 -40.505600 2.760703 2.311910 23.051437 41.817486 3.165451 -17.236816 -16.486752 2.647422 -8.590033 -6.748942 -30.036327 -18.905741 60.419266 -10.728459 -4.397525 -22.959806 -13.863407 7.105416 
-10.294597 40.065483 -0.696620 -24.140301 15.414700 -0.378265 0.000000 0.000000 0.000000 22.635500 11.272200 3.709050 43.643299 -22.271099 -11.718500 -4.173490 6.438960 -7.778900 9.550415 -11.830692 15.276441 -21.069401 -33.250702 -18.654100 -60.446999 -9.782090 13.698100 -16.979200 -27.891899 -0.766006 21.119728 -22.772097 25.000000 -8.396180 83.335403 -28.296301 43.695400 -21.892300 42.161800 25.302700 21.859600 -40.411701 2.301176 3.277055 22.844734 40.097046 2.414036 -13.924987 -14.724582 1.754618 -10.263053 -7.881312 -29.243841 -19.097408 58.837372 -10.219185 -1.575471 -22.672728 -13.627718 5.742551 
